# xmcd
#
# Track frame offsets:
# 150
# 20037
# 54518
# 78560
# 117755
# 135797
# 170047
# 195493
# 220681
# 251290
#
# Disc length: 3687 seconds
#
# Revision: 0
# Processed by: cddbd v1.4PL0 Copyright (c) Steve Scherf et al.
# Submitted via: Audion 3.0.2 (http://www.panic.com/audion/)
#
DISCID=7e0e650a
DTITLE=Shirley Bell - God Did It!
DYEAR=1900
DGENRE=
TTITLE0=God Did It
TTITLE1=Save the Children
TTITLE2=Everywhere I Go
TTITLE3=God Can Do Anything
TTITLE4=Power of the Holy Ghost
TTITLE5=Jesus Love Me
TTITLE6=Old Church Medley
TTITLE7=In God's Own Time
TTITLE8=Having Done All...Stand
TTITLE9=I Praise Your Holy Name
EXTD=
EXTT0=
EXTT1=
EXTT2=
EXTT3=
EXTT4=
EXTT5=
EXTT6=
EXTT7=
EXTT8=
EXTT9=
PLAYORDER=
